<svg width="22" height="26" viewBox="0 0 22 26" fill="none" xmlns="http://www.w3.org/2000/svg">
<path d="M0 21.946V20.8649H2.87026V9.89732C2.87026 8.01593 3.459 6.35864 4.63647 4.92545C5.81396 3.49227 7.33333 2.61261 9.19458 2.28649V1.29459C9.19458 0.898499 9.32026 0.583711 9.57162 0.350227C9.82298 0.116742 10.1459 0 10.5405 0C10.9351 0 11.2581 0.116742 11.5095 0.350227C11.7608 0.583711 11.8865 0.898499 11.8865 1.29459V2.28649C13.7477 2.61261 15.2685 3.49227 16.4487 4.92545C17.6288 6.35864 18.2189 8.01593 18.2189 9.89732V20.8649H21.0811V21.946H0ZM10.5405 26C9.93514 26 9.40541 25.7833 8.95134 25.35C8.4973 24.9167 8.27028 24.3766 8.27028 23.7297H12.8108C12.8108 24.3766 12.5941 24.9167 12.1608 25.35C11.7275 25.7833 11.1874 26 10.5405 26ZM3.95137 20.8649H17.1378V9.89732C17.1378 8.05587 16.5 6.4946 15.2243 5.21353C13.9486 3.93245 12.3901 3.29192 10.5487 3.29192C8.7072 3.29192 7.14729 3.93245 5.86894 5.21353C4.59056 6.4946 3.95137 8.05587 3.95137 9.89732V20.8649Z" fill="#2E2E2E"/>
</svg>
