<svg width="26" height="26" viewBox="0 0 26 26" fill="none" xmlns="http://www.w3.org/2000/svg">
<path d="M4.40556 21.2639C5.77407 20.3343 7.1398 19.6051 8.50276 19.0764C9.86574 18.5477 11.3648 18.2833 13 18.2833C14.6352 18.2833 16.1356 18.5477 17.5014 19.0764C18.8671 19.6051 20.2343 20.3343 21.6028 21.2639C22.6435 20.1305 23.4514 18.8733 24.0264 17.492C24.6014 16.1108 24.8889 14.6135 24.8889 13C24.8889 9.67592 23.7384 6.86342 21.4375 4.56249C19.1366 2.26157 16.3241 1.1111 13 1.1111C9.67592 1.1111 6.86342 2.26157 4.56249 4.56249C2.26157 6.86342 1.1111 9.67592 1.1111 13C1.1111 14.6135 1.39999 16.1108 1.97777 17.492C2.55555 18.8733 3.36481 20.1305 4.40556 21.2639ZM12.991 13.5556C11.7859 13.5556 10.7727 13.1419 9.95139 12.3146C9.13008 11.4874 8.71943 10.4712 8.71943 9.26604C8.71943 8.06089 9.13307 7.04767 9.96035 6.22639C10.7876 5.4051 11.8038 4.99446 13.009 4.99446C14.2141 4.99446 15.2273 5.40808 16.0486 6.23534C16.8699 7.0626 17.2806 8.0788 17.2806 9.28395C17.2806 10.4891 16.8669 11.5023 16.0397 12.3236C15.2124 13.1449 14.1962 13.5556 12.991 13.5556ZM13.0169 26C11.1982 26 9.50081 25.6625 7.92466 24.9875C6.34848 24.3125 4.97116 23.3838 3.79271 22.2014C2.61424 21.019 1.6875 19.6445 1.01248 18.0779C0.337494 16.5113 0 14.8201 0 13.0043C0 11.1885 0.337494 9.49583 1.01248 7.92639C1.6875 6.35695 2.6162 4.98102 3.7986 3.7986C4.98102 2.6162 6.35552 1.6875 7.92209 1.01248C9.48869 0.337494 11.1799 0 12.9957 0C14.8115 0 16.5042 0.337494 18.0736 1.01248C19.643 1.6875 21.019 2.6162 22.2014 3.7986C23.3838 4.98102 24.3125 6.35734 24.9875 7.92755C25.6625 9.49775 26 11.1829 26 12.9831C26 14.8018 25.6625 16.4992 24.9875 18.0753C24.3125 19.6515 23.3838 21.0288 22.2014 22.2073C21.019 23.3858 19.6427 24.3125 18.0725 24.9875C16.5022 25.6625 14.8171 26 13.0169 26ZM13 24.8889C14.3611 24.8889 15.7153 24.6546 17.0625 24.1861C18.4097 23.7176 19.6231 23.0111 20.7028 22.0667C19.6231 21.237 18.4315 20.5842 17.1278 20.1083C15.8241 19.6324 14.4482 19.3944 13 19.3944C11.5518 19.3944 10.1713 19.6278 8.85835 20.0945C7.54537 20.5611 6.36759 21.2185 5.32502 22.0667C6.38613 23.0111 7.59029 23.7176 8.9375 24.1861C10.2847 24.6546 11.6389 24.8889 13 24.8889ZM13.0039 12.4444C13.9124 12.4444 14.6671 12.1427 15.2681 11.5392C15.869 10.9357 16.1694 10.1797 16.1694 9.27113C16.1694 8.3626 15.8677 7.60786 15.2642 7.00693C14.6607 6.40601 13.9046 6.10556 12.9961 6.10556C12.0876 6.10556 11.3329 6.40731 10.7319 7.01083C10.131 7.61434 9.83056 8.37035 9.83056 9.27886C9.83056 10.1874 10.1323 10.9421 10.7358 11.5431C11.3393 12.144 12.0954 12.4444 13.0039 12.4444Z" fill="#2E2E2E"/>
</svg>
